<svg id="svg" version="1.1" width="400" height="210" viewBox="0 0 400 210" xmlns="http://www.w3.org/2000/svg" xmlns:xlink="http://www.w3.org/1999/xlink"><g id="svgg"><path id="path0" d="M34.460 73.687 C 33.435 74.204,33.448 74.072,33.424 84.383 L 33.403 93.662 31.277 98.039 C 26.200 108.488,25.318 110.296,22.486 116.071 C 20.843 119.422,18.826 123.535,18.005 125.210 C 15.495 130.331,15.989 132.603,19.958 134.183 C 21.257 134.699,66.377 134.771,68.172 134.259 C 70.635 133.557,72.059 131.926,72.059 129.808 C 72.059 128.255,72.748 129.778,63.757 111.450 C 62.566 109.023,60.119 104.022,58.317 100.336 L 55.042 93.635 55.042 84.199 C 55.042 73.996,55.054 74.109,53.876 73.617 C 52.693 73.122,35.458 73.185,34.460 73.687 M56.792 106.460 C 58.190 107.252,57.535 110.063,55.949 110.079 C 55.388 110.085,55.117 110.470,53.160 114.051 L 51.623 116.863 52.011 117.518 C 52.557 118.438,52.535 120.187,51.969 120.951 C 49.785 123.898,45.489 122.191,46.070 118.607 C 46.172 117.982,46.103 117.856,45.413 117.402 C 44.990 117.124,43.508 116.141,42.122 115.218 C 38.385 112.733,38.497 112.716,33.063 116.602 C 29.154 119.398,28.879 119.638,28.770 120.351 C 28.413 122.684,26.175 123.548,24.657 121.939 C 22.850 120.023,25.176 117.022,27.503 118.267 C 27.797 118.425,28.210 118.231,29.432 117.364 C 36.629 112.258,36.733 112.176,36.871 111.547 C 37.262 109.769,39.772 109.938,40.227 111.773 C 40.306 112.091,40.716 112.529,41.241 112.855 C 41.725 113.157,43.241 114.176,44.608 115.121 L 47.094 116.838 47.840 116.484 C 48.251 116.289,49.011 116.117,49.529 116.101 C 50.572 116.068,50.442 116.236,52.822 111.870 C 53.263 111.061,53.719 110.280,53.835 110.135 C 53.977 109.957,53.962 109.573,53.789 108.955 C 53.264 107.081,55.139 105.523,56.792 106.460 M57.942 112.132 C 58.466 113.192,60.834 117.705,61.553 119.013 C 62.268 120.312,64.368 124.286,65.161 125.840 C 66.191 127.857,65.716 129.712,63.972 130.483 C 62.495 131.137,25.127 131.006,24.241 130.344 C 22.679 129.178,22.327 127.391,23.332 125.727 C 23.614 125.261,23.952 124.694,24.084 124.467 C 24.283 124.123,24.511 124.065,25.449 124.119 C 27.690 124.247,29.639 123.078,29.973 121.405 C 30.059 120.974,30.399 120.551,31.021 120.100 C 38.895 114.390,38.191 114.588,41.869 117.059 C 44.773 119.010,44.740 118.977,44.745 119.914 C 44.752 121.407,46.284 123.295,47.841 123.727 C 51.643 124.783,55.033 121.327,53.764 117.688 C 53.556 117.090,53.636 116.858,54.746 114.873 C 55.411 113.683,56.057 112.523,56.181 112.294 C 56.800 111.156,57.432 111.098,57.942 112.132 " stroke="none" fill="#f4f7fc" fill-rule="evenodd"></path><path id="path1" d="M0.000 104.727 L 0.000 149.160 44.433 149.160 L 88.866 149.160 88.866 104.727 L 88.866 60.294 44.433 60.294 L 0.000 60.294 0.000 104.727 M228.782 78.676 L 228.782 84.874 234.139 84.874 C 237.570 84.874,239.496 84.798,239.496 84.664 C 239.496 84.548,239.623 84.454,239.778 84.454 C 240.196 84.454,240.756 83.752,240.756 83.229 C 240.756 82.978,240.851 82.773,240.966 82.773 C 241.099 82.773,241.176 81.268,241.176 78.676 C 241.176 76.085,241.099 74.580,240.966 74.580 C 240.851 74.580,240.756 74.364,240.756 74.101 C 240.756 73.632,240.114 72.899,239.703 72.899 C 239.589 72.899,239.496 72.805,239.496 72.689 C 239.496 72.555,237.570 72.479,234.139 72.479 L 228.782 72.479 228.782 78.676 M54.651 73.721 L 55.147 74.122 55.252 83.962 L 55.357 93.803 57.738 98.634 C 59.047 101.292,60.631 104.493,61.257 105.748 C 61.883 107.003,62.395 108.153,62.395 108.304 C 62.395 108.455,62.466 108.610,62.553 108.648 C 62.639 108.687,62.870 109.049,63.066 109.454 C 63.262 109.858,64.691 112.789,66.241 115.966 C 67.791 119.144,69.681 123.020,70.441 124.580 C 71.863 127.498,72.471 129.023,72.476 129.687 C 72.481 130.272,71.824 132.143,71.614 132.143 C 71.512 132.143,71.429 132.249,71.429 132.378 C 71.429 133.053,69.804 134.004,67.542 134.651 C 66.302 135.006,21.473 134.861,20.213 134.498 C 17.716 133.778,16.176 131.937,16.176 129.671 C 16.176 128.632,17.557 124.970,18.097 124.578 C 18.178 124.519,18.309 124.212,18.388 123.895 C 18.468 123.578,18.617 123.319,18.720 123.319 C 18.823 123.319,18.908 123.208,18.908 123.071 C 18.908 122.935,19.569 121.473,20.378 119.824 C 21.187 118.175,21.849 116.726,21.849 116.606 C 21.849 116.485,21.943 116.387,22.059 116.387 C 22.174 116.387,22.269 116.275,22.269 116.138 C 22.269 116.001,23.296 113.803,24.552 111.254 C 25.807 108.704,27.754 104.727,28.877 102.416 C 30.001 100.105,31.432 97.188,32.057 95.933 L 33.193 93.651 33.193 84.101 C 33.193 76.756,33.254 74.482,33.456 74.257 C 33.600 74.096,33.840 73.819,33.989 73.642 C 34.454 73.088,53.962 73.163,54.651 73.721 M228.782 95.808 L 228.782 102.120 238.514 102.058 L 248.247 101.996 248.921 101.261 C 249.292 100.856,249.645 100.331,249.705 100.093 C 249.944 99.154,249.693 91.109,249.422 91.019 C 249.278 90.971,249.160 90.813,249.160 90.669 C 249.160 90.525,248.923 90.281,248.634 90.126 C 248.346 89.971,248.109 89.766,248.109 89.670 C 248.109 89.574,243.761 89.496,238.445 89.496 L 228.782 89.496 228.782 95.808 M54.438 106.954 C 53.854 107.580,53.722 108.317,54.075 108.985 C 54.353 109.511,53.661 111.464,52.941 112.185 C 52.837 112.290,52.660 112.606,51.355 115.021 L 50.674 116.282 49.431 116.387 C 48.748 116.444,47.959 116.644,47.678 116.831 C 47.197 117.151,44.893 116.004,44.573 115.284 C 44.534 115.197,44.415 115.126,44.308 115.126 C 44.201 115.126,43.748 114.866,43.300 114.548 C 42.853 114.231,42.275 113.829,42.017 113.655 C 40.239 112.463,39.916 112.158,39.916 111.670 C 39.916 110.039,37.483 110.177,37.070 111.832 C 36.977 112.202,36.598 112.635,36.058 112.987 C 35.583 113.297,35.051 113.665,34.877 113.805 C 34.702 113.945,33.472 114.816,32.143 115.740 C 30.814 116.665,29.616 117.516,29.480 117.632 C 28.567 118.416,27.921 118.634,27.135 118.424 C 25.060 117.870,23.477 119.675,24.503 121.425 C 25.632 123.351,28.553 122.427,28.579 120.136 C 28.587 119.491,29.979 118.167,31.169 117.672 C 31.275 117.628,31.514 117.469,31.700 117.317 C 37.223 112.825,39.815 112.295,42.437 115.118 C 42.495 115.180,43.251 115.704,44.118 116.282 C 44.984 116.859,45.725 117.403,45.763 117.489 C 45.802 117.576,45.961 117.647,46.118 117.647 C 46.330 117.647,46.394 117.980,46.370 118.960 C 46.346 119.920,46.440 120.427,46.720 120.847 C 48.868 124.072,53.809 121.071,51.804 117.758 L 51.299 116.925 51.886 115.868 C 52.208 115.286,52.763 114.272,53.119 113.612 C 54.039 111.909,54.292 111.464,54.412 111.345 C 54.470 111.287,54.661 110.958,54.837 110.615 C 55.081 110.139,55.363 109.950,56.023 109.819 C 56.874 109.651,57.261 109.183,57.368 108.193 C 57.527 106.737,55.456 105.861,54.438 106.954 M228.877 106.778 C 228.821 106.924,228.800 109.736,228.831 113.028 L 228.887 119.013 235.819 119.013 L 242.752 119.013 243.435 118.400 L 244.118 117.788 244.118 112.895 L 244.118 108.002 243.583 107.468 C 243.289 107.173,242.863 106.933,242.638 106.933 C 242.412 106.933,242.227 106.838,242.227 106.723 C 242.227 106.385,229.006 106.440,228.877 106.778 M56.571 112.132 C 56.495 112.335,56.120 112.992,55.738 113.593 C 55.355 114.194,55.042 114.751,55.042 114.830 C 55.042 114.910,54.750 115.449,54.393 116.029 C 53.845 116.920,53.780 117.161,53.973 117.585 C 54.636 119.040,54.100 121.332,52.764 122.760 C 50.059 125.648,45.015 123.912,44.462 119.903 C 44.367 119.212,43.937 118.487,43.621 118.487 C 43.563 118.487,42.595 117.859,41.471 117.092 C 38.778 115.253,38.320 115.231,36.045 116.829 C 35.158 117.452,33.658 118.508,32.710 119.174 C 30.759 120.546,30.042 121.268,30.042 121.860 C 30.042 123.076,26.982 124.844,25.713 124.361 C 24.709 123.979,24.481 124.111,23.782 125.473 C 22.642 127.697,22.953 129.514,24.617 130.344 C 25.623 130.846,62.831 130.842,63.838 130.340 C 65.568 129.477,66.047 126.763,64.706 125.420 C 64.580 125.294,64.250 124.679,62.394 121.113 C 61.612 119.611,60.716 117.910,60.401 117.332 C 60.087 116.754,59.301 115.265,58.654 114.023 C 57.471 111.753,56.907 111.240,56.571 112.132 M229.149 123.822 C 228.814 124.076,228.782 124.634,228.782 130.118 L 228.782 136.134 245.396 136.134 L 262.011 136.134 262.728 135.458 C 263.203 135.010,263.445 134.588,263.445 134.210 C 263.445 133.895,263.540 133.580,263.655 133.508 C 263.782 133.430,263.866 131.966,263.866 129.820 C 263.866 127.587,263.787 126.261,263.655 126.261 C 263.540 126.261,263.445 126.062,263.445 125.820 C 263.445 124.955,262.772 124.158,261.926 124.023 C 261.491 123.953,261.134 123.813,261.134 123.713 C 261.134 123.387,229.580 123.494,229.149 123.822 " stroke="none" fill="#047cfc" fill-rule="evenodd"></path><path id="path2" d="M33.944 73.649 C 33.545 74.048,33.502 74.303,33.887 73.984 C 34.038 73.859,34.393 73.664,34.675 73.551 C 35.164 73.356,35.167 73.345,34.731 73.333 C 34.480 73.325,34.125 73.468,33.944 73.649 M53.918 73.624 C 54.282 73.782,54.681 74.086,54.804 74.298 C 55.004 74.642,55.030 74.645,55.036 74.329 C 55.043 73.894,54.263 73.316,53.682 73.328 C 53.362 73.334,53.421 73.407,53.918 73.624 M33.193 84.011 L 33.193 93.651 32.057 95.933 C 31.432 97.188,30.001 100.105,28.877 102.416 C 27.754 104.727,25.796 108.726,24.527 111.303 C 23.258 113.879,22.272 116.039,22.334 116.102 C 22.397 116.165,22.824 115.427,23.283 114.463 C 23.742 113.499,25.367 110.158,26.894 107.038 C 28.422 103.918,30.507 99.638,31.529 97.527 L 33.387 93.688 33.448 84.029 C 33.481 78.716,33.438 74.370,33.351 74.370 C 33.264 74.370,33.193 78.708,33.193 84.011 M55.090 84.161 L 55.042 93.637 58.653 101.015 C 60.639 105.074,62.310 108.349,62.366 108.293 C 62.422 108.237,61.939 107.128,61.294 105.829 C 60.649 104.529,59.049 101.292,57.739 98.634 L 55.357 93.803 55.248 84.244 L 55.139 74.685 55.090 84.161 M54.898 106.405 C 53.887 106.837,53.467 107.804,53.789 108.955 C 53.962 109.573,53.977 109.957,53.835 110.135 C 53.719 110.280,53.263 111.061,52.822 111.870 C 50.442 116.236,50.572 116.068,49.529 116.101 C 49.011 116.117,48.251 116.289,47.840 116.484 L 47.094 116.838 44.608 115.121 C 43.241 114.176,41.725 113.157,41.241 112.855 C 40.716 112.529,40.306 112.091,40.227 111.773 C 39.772 109.938,37.262 109.769,36.871 111.547 C 36.733 112.176,36.629 112.258,29.432 117.364 C 28.210 118.231,27.797 118.425,27.503 118.267 C 26.615 117.792,23.893 118.501,24.454 119.062 C 24.512 119.120,24.713 119.015,24.900 118.828 C 25.395 118.333,26.229 118.182,27.135 118.424 C 27.921 118.634,28.567 118.416,29.480 117.632 C 29.616 117.516,30.814 116.665,32.143 115.740 C 33.472 114.816,34.702 113.945,34.877 113.805 C 35.051 113.665,35.583 113.297,36.058 112.987 C 36.598 112.635,36.977 112.202,37.070 111.832 C 37.483 110.177,39.916 110.039,39.916 111.670 C 39.916 112.158,40.239 112.463,42.017 113.655 C 42.275 113.829,42.853 114.231,43.300 114.548 C 43.748 114.866,44.201 115.126,44.308 115.126 C 44.415 115.126,44.534 115.197,44.573 115.284 C 44.893 116.004,47.197 117.151,47.678 116.831 C 47.959 116.644,48.748 116.444,49.431 116.387 L 50.674 116.282 51.355 115.021 C 52.660 112.606,52.837 112.290,52.941 112.185 C 53.661 111.464,54.353 109.511,54.075 108.985 C 53.041 107.026,55.931 105.480,57.188 107.319 C 57.516 107.800,57.492 108.117,57.029 109.349 C 56.919 109.640,56.939 109.704,57.092 109.559 C 57.831 108.858,57.646 106.943,56.792 106.460 C 56.288 106.174,55.493 106.151,54.898 106.405 M62.534 108.942 C 62.899 109.893,64.534 113.057,64.618 112.973 C 64.671 112.920,64.443 112.319,64.111 111.638 C 63.780 110.957,63.329 110.000,63.109 109.512 C 62.739 108.689,62.252 108.206,62.534 108.942 M55.825 109.815 C 55.286 109.896,54.431 110.804,54.670 111.043 C 54.728 111.100,54.932 110.908,55.123 110.616 C 55.337 110.290,55.668 110.084,55.980 110.084 C 56.259 110.084,56.546 109.989,56.618 109.874 C 56.689 109.758,56.671 109.678,56.578 109.695 C 56.484 109.713,56.146 109.766,55.825 109.815 M54.080 111.819 C 53.857 112.281,53.050 113.770,51.886 115.868 L 51.299 116.925 51.804 117.758 C 52.082 118.217,52.309 118.465,52.310 118.310 C 52.310 118.154,52.155 117.763,51.964 117.440 C 51.622 116.861,51.634 116.825,52.882 114.572 C 54.592 111.485,54.661 111.344,54.472 111.346 C 54.381 111.347,54.205 111.560,54.080 111.819 M56.723 111.618 C 56.549 111.761,56.306 112.065,56.181 112.294 C 56.057 112.523,55.411 113.683,54.746 114.873 C 53.636 116.858,53.556 117.090,53.764 117.688 C 55.033 121.327,51.643 124.783,47.841 123.727 C 46.284 123.295,44.752 121.407,44.745 119.914 C 44.740 118.977,44.773 119.010,41.869 117.059 C 38.309 114.667,38.597 114.612,32.830 118.789 C 32.341 119.143,31.514 119.743,30.992 120.122 C 30.469 120.501,30.042 120.956,30.042 121.132 C 30.042 121.356,30.184 121.292,30.515 120.919 C 30.775 120.626,31.763 119.841,32.710 119.174 C 38.870 114.841,38.354 114.964,41.471 117.092 C 42.595 117.859,43.563 118.487,43.621 118.487 C 43.937 118.487,44.367 119.212,44.462 119.903 C 45.015 123.912,50.059 125.648,52.764 122.760 C 54.100 121.332,54.636 119.040,53.973 117.585 C 53.780 117.161,53.845 116.920,54.393 116.029 C 54.750 115.449,55.042 114.910,55.042 114.830 C 55.042 114.751,55.355 114.194,55.738 113.593 C 56.120 112.992,56.495 112.335,56.571 112.132 C 56.907 111.240,57.471 111.753,58.654 114.023 C 59.301 115.265,60.087 116.754,60.401 117.332 C 60.716 117.910,61.612 119.611,62.394 121.113 C 64.250 124.679,64.580 125.294,64.706 125.420 C 66.004 126.720,65.532 129.659,63.926 130.269 C 63.630 130.382,63.439 130.526,63.502 130.589 C 63.769 130.856,64.945 129.969,65.334 129.206 C 66.115 127.674,66.074 127.530,63.351 122.374 C 62.680 121.103,61.871 119.590,61.553 119.013 C 60.834 117.705,58.466 113.192,57.942 112.132 C 57.534 111.307,57.247 111.185,56.723 111.618 M34.661 115.174 C 33.218 116.202,31.886 117.166,31.700 117.318 C 31.514 117.469,31.275 117.628,31.169 117.672 C 29.979 118.167,28.587 119.491,28.579 120.136 C 28.569 121.016,27.895 121.984,27.029 122.364 C 26.519 122.588,26.464 122.659,26.791 122.672 C 27.717 122.709,28.561 121.719,28.770 120.351 C 28.879 119.638,29.154 119.398,33.063 116.602 C 38.833 112.475,38.235 112.436,45.384 117.410 C 45.612 117.569,45.793 117.616,45.786 117.515 C 45.779 117.414,45.108 116.907,44.295 116.387 C 43.482 115.867,42.708 115.344,42.574 115.226 C 39.651 112.628,38.249 112.618,34.661 115.174 M64.706 113.337 C 64.706 113.393,64.984 113.984,65.324 114.650 C 65.942 115.861,71.337 126.949,71.790 127.941 C 71.922 128.230,72.037 128.338,72.045 128.181 C 72.052 128.023,71.337 126.416,70.455 124.609 C 69.573 122.802,67.964 119.504,66.880 117.279 C 65.152 113.734,64.706 112.925,64.706 113.337 M21.849 116.579 C 21.849 116.686,21.785 116.937,21.708 117.139 C 21.619 117.370,21.649 117.455,21.788 117.370 C 22.078 117.190,22.284 116.387,22.039 116.387 C 21.934 116.387,21.849 116.473,21.849 116.579 M20.157 120.262 C 19.448 121.729,18.921 122.983,18.987 123.048 C 19.052 123.114,19.192 122.942,19.297 122.666 C 19.402 122.390,19.973 121.181,20.567 119.980 C 21.161 118.778,21.602 117.750,21.547 117.695 C 21.491 117.640,20.866 118.795,20.157 120.262 M46.050 118.763 C 45.859 122.252,49.552 123.835,51.761 121.210 C 52.063 120.850,52.303 120.398,52.294 120.204 C 52.284 120.008,52.145 120.153,51.979 120.533 C 50.642 123.590,46.286 122.369,46.370 118.960 C 46.409 117.365,46.136 117.197,46.050 118.763 M24.090 119.468 C 23.398 120.159,24.732 122.717,25.760 122.672 C 26.045 122.660,25.979 122.576,25.525 122.376 C 24.659 121.992,24.080 120.951,24.227 120.042 C 24.347 119.305,24.329 119.229,24.090 119.468 M29.832 121.848 C 29.832 122.981,27.419 124.232,25.449 124.119 C 24.511 124.065,24.283 124.123,24.084 124.467 C 23.952 124.694,23.614 125.261,23.332 125.727 C 22.655 126.848,22.607 128.499,23.227 129.330 C 23.773 130.062,24.739 130.793,24.921 130.612 C 24.996 130.536,24.820 130.383,24.529 130.273 C 22.992 129.688,22.673 127.636,23.782 125.473 C 24.481 124.111,24.709 123.979,25.713 124.361 C 26.568 124.686,28.302 124.061,29.247 123.087 C 29.929 122.385,30.284 121.639,29.937 121.639 C 29.879 121.639,29.832 121.733,29.832 121.848 M18.487 123.512 C 18.487 123.618,18.424 123.870,18.347 124.072 C 18.258 124.303,18.288 124.388,18.426 124.302 C 18.717 124.123,18.922 123.319,18.678 123.319 C 18.573 123.319,18.487 123.406,18.487 123.512 M17.069 126.575 C 16.038 128.868,15.905 130.241,16.576 131.631 C 17.230 132.984,19.202 134.472,20.305 134.444 C 20.518 134.439,20.262 134.265,19.734 134.059 C 16.503 132.794,15.605 130.177,17.239 126.786 C 18.210 124.771,18.286 124.579,18.113 124.585 C 18.030 124.588,17.560 125.483,17.069 126.575 M72.065 129.727 C 72.065 130.617,72.125 130.895,72.269 130.672 C 72.381 130.499,72.473 130.074,72.473 129.727 C 72.473 129.380,72.381 128.955,72.269 128.782 C 72.125 128.559,72.065 128.836,72.065 129.727 M34.595 130.830 C 39.815 130.861,48.418 130.861,53.713 130.830 C 59.008 130.799,54.737 130.773,44.223 130.773 C 33.708 130.773,29.376 130.799,34.595 130.830 M71.382 132.064 C 70.792 133.019,69.791 133.749,68.495 134.169 C 68.034 134.318,67.912 134.416,68.172 134.427 C 69.070 134.464,71.429 132.983,71.429 132.381 C 71.429 132.250,71.517 132.143,71.624 132.143 C 71.818 132.143,72.164 131.333,72.025 131.204 C 71.986 131.167,71.696 131.554,71.382 132.064 M21.081 134.713 C 21.214 134.798,31.628 134.868,44.223 134.868 C 56.817 134.868,67.231 134.798,67.364 134.713 C 67.498 134.628,57.084 134.559,44.223 134.559 C 31.361 134.559,20.948 134.628,21.081 134.713 " stroke="none" fill="#3896fc" fill-rule="evenodd"></path><path id="path3" d="M117.227 105.474 L 117.227 136.159 134.462 136.094 C 146.686 136.048,151.740 135.962,151.846 135.799 C 151.928 135.672,152.562 135.503,153.253 135.423 C 153.945 135.344,154.602 135.188,154.714 135.076 C 154.825 134.965,155.133 134.874,155.399 134.874 C 155.665 134.874,155.882 134.787,155.882 134.681 C 155.882 134.574,156.190 134.421,156.565 134.341 C 156.941 134.261,157.342 134.123,157.458 134.035 C 157.574 133.947,157.897 133.805,158.177 133.718 C 158.713 133.554,158.959 133.386,159.798 132.616 C 160.082 132.356,160.399 132.143,160.504 132.143 C 160.827 132.143,163.445 129.466,163.445 129.136 C 163.445 128.966,163.587 128.772,163.761 128.706 C 163.934 128.639,164.076 128.461,164.076 128.309 C 164.076 128.158,164.264 127.898,164.495 127.732 C 164.725 127.566,164.975 127.096,165.050 126.687 C 165.125 126.279,165.275 125.888,165.382 125.818 C 165.490 125.748,165.631 125.299,165.695 124.820 C 165.759 124.341,165.884 123.950,165.973 123.950 C 166.241 123.950,166.430 122.096,166.433 119.433 C 166.435 116.834,166.253 115.126,165.972 115.126 C 165.884 115.126,165.758 114.726,165.692 114.238 C 165.627 113.749,165.473 113.316,165.350 113.275 C 165.227 113.234,165.126 113.010,165.126 112.778 C 165.126 112.304,164.495 111.134,164.240 111.134 C 164.150 111.134,164.076 110.990,164.076 110.813 C 164.076 110.636,163.934 110.437,163.761 110.370 C 163.587 110.304,163.445 110.126,163.445 109.975 C 163.445 109.606,161.079 107.220,160.546 107.051 C 160.313 106.977,160.070 106.779,160.005 106.610 C 159.940 106.441,159.742 106.303,159.565 106.303 C 159.388 106.303,159.244 106.208,159.244 106.092 C 159.244 105.977,159.055 105.882,158.824 105.882 C 158.592 105.882,158.403 105.795,158.403 105.689 C 158.403 105.583,158.120 105.433,157.773 105.357 C 157.426 105.281,157.143 105.132,157.143 105.025 C 157.143 104.919,156.895 104.832,156.592 104.832 C 156.126 104.832,156.081 104.783,156.303 104.517 C 156.446 104.343,156.694 104.202,156.853 104.202 C 157.013 104.202,157.143 104.115,157.143 104.008 C 157.143 103.902,157.426 103.753,157.773 103.676 C 158.120 103.600,158.403 103.453,158.403 103.349 C 158.403 103.244,158.622 103.105,158.888 103.038 C 159.155 102.971,159.546 102.685,159.758 102.403 C 159.970 102.121,160.264 101.891,160.413 101.891 C 160.561 101.891,160.902 101.604,161.171 101.253 C 161.440 100.903,161.920 100.332,162.237 99.986 C 162.555 99.639,162.815 99.264,162.815 99.152 C 162.815 99.041,162.899 98.950,163.002 98.950 C 163.105 98.950,163.251 98.619,163.326 98.214 C 163.402 97.810,163.554 97.479,163.662 97.479 C 163.771 97.479,163.921 97.101,163.995 96.639 C 164.069 96.176,164.212 95.798,164.313 95.798 C 164.413 95.798,164.496 95.628,164.496 95.420 C 164.496 95.212,164.614 94.924,164.758 94.779 C 164.949 94.589,165.021 93.485,165.021 90.756 C 165.021 88.028,164.949 86.924,164.758 86.733 C 164.614 86.589,164.496 86.253,164.496 85.987 C 164.496 85.722,164.413 85.504,164.313 85.504 C 164.212 85.504,164.069 85.126,163.995 84.664 C 163.921 84.202,163.775 83.824,163.670 83.824 C 163.565 83.824,163.421 83.558,163.349 83.234 C 163.278 82.910,163.034 82.511,162.807 82.347 C 162.581 82.184,162.395 81.961,162.395 81.851 C 162.395 81.742,162.254 81.503,162.081 81.320 C 160.736 79.893,160.450 79.622,160.292 79.622 C 160.193 79.622,160.054 79.438,159.982 79.212 C 159.911 78.987,159.649 78.738,159.400 78.660 C 159.152 78.581,158.819 78.387,158.661 78.229 C 158.503 78.071,158.238 77.941,158.073 77.941 C 157.908 77.941,157.773 77.847,157.773 77.731 C 157.773 77.616,157.631 77.521,157.458 77.521 C 157.285 77.521,157.143 77.434,157.143 77.328 C 157.143 77.221,156.859 77.072,156.513 76.996 C 156.166 76.920,155.882 76.775,155.882 76.673 C 155.882 76.572,155.528 76.424,155.095 76.345 C 154.661 76.265,154.254 76.119,154.190 76.021 C 154.126 75.923,153.488 75.781,152.772 75.706 C 152.056 75.632,151.471 75.489,151.471 75.390 C 151.471 75.291,151.092 75.210,150.630 75.210 C 150.168 75.210,149.790 75.116,149.790 75.000 C 149.790 74.862,144.223 74.790,133.508 74.790 L 117.227 74.790 117.227 105.474 M177.521 75.000 C 177.521 75.116,177.237 75.210,176.891 75.210 C 176.544 75.210,176.261 75.294,176.261 75.397 C 176.261 75.499,175.930 75.646,175.525 75.721 C 175.121 75.797,174.790 75.950,174.790 76.060 C 174.790 76.170,174.663 76.261,174.509 76.261 C 174.097 76.261,172.521 78.016,172.361 78.654 C 172.285 78.955,172.139 79.202,172.036 79.202 C 171.933 79.202,171.849 79.438,171.849 79.727 C 171.849 80.016,171.754 80.252,171.639 80.252 C 171.513 80.252,171.429 81.057,171.429 82.248 C 171.429 83.438,171.513 84.244,171.639 84.244 C 171.754 84.244,171.849 84.480,171.849 84.769 C 171.849 85.058,171.933 85.294,172.036 85.294 C 172.139 85.294,172.281 85.524,172.352 85.805 C 172.511 86.442,173.784 87.815,174.215 87.815 C 174.391 87.815,174.589 87.957,174.656 88.130 C 174.722 88.304,174.922 88.445,175.098 88.445 C 175.275 88.445,175.420 88.540,175.420 88.655 C 175.420 88.771,175.601 88.866,175.823 88.866 C 176.044 88.866,176.265 88.984,176.313 89.128 C 176.378 89.322,177.211 89.391,179.517 89.391 C 181.823 89.391,182.656 89.322,182.721 89.128 C 182.769 88.984,182.942 88.866,183.106 88.866 C 183.269 88.866,183.403 88.771,183.403 88.655 C 183.403 88.540,183.595 88.445,183.830 88.445 C 184.065 88.445,184.311 88.304,184.378 88.130 C 184.444 87.957,184.627 87.815,184.783 87.815 C 185.131 87.815,186.134 86.764,186.134 86.399 C 186.134 86.254,186.219 86.134,186.322 86.134 C 186.425 86.134,186.574 85.875,186.654 85.559 C 186.733 85.242,186.909 84.915,187.044 84.831 C 187.401 84.611,187.385 79.794,187.027 79.675 C 186.883 79.626,186.765 79.365,186.765 79.094 C 186.765 78.823,186.623 78.460,186.450 78.286 C 186.276 78.113,186.134 77.886,186.134 77.781 C 186.134 77.538,185.082 76.595,184.606 76.413 C 184.407 76.336,184.244 76.187,184.244 76.080 C 184.244 75.974,183.913 75.825,183.508 75.749 C 183.104 75.673,182.773 75.521,182.773 75.411 C 182.773 75.300,182.495 75.210,182.155 75.210 C 181.815 75.210,181.479 75.116,181.408 75.000 C 181.336 74.884,180.432 74.790,179.399 74.790 C 178.287 74.790,177.521 74.876,177.521 75.000 M197.622 82.910 C 197.543 82.989,197.479 85.354,197.479 88.165 L 197.479 93.277 194.958 93.277 L 192.437 93.277 192.437 98.950 L 192.437 104.622 194.958 104.622 L 197.479 104.622 197.479 114.601 C 197.479 120.126,197.561 124.580,197.662 124.580 C 197.763 124.580,197.910 125.242,197.990 126.050 C 198.069 126.859,198.211 127.521,198.305 127.521 C 198.399 127.521,198.536 127.899,198.610 128.361 C 198.684 128.824,198.838 129.202,198.952 129.202 C 199.066 129.202,199.160 129.343,199.160 129.517 C 199.160 129.690,199.254 129.832,199.370 129.832 C 199.485 129.832,199.580 129.967,199.580 130.132 C 199.580 130.297,199.709 130.562,199.867 130.720 C 200.025 130.878,200.221 131.215,200.302 131.470 C 200.382 131.724,200.533 131.933,200.636 131.933 C 200.739 131.933,201.173 132.311,201.601 132.773 C 202.029 133.235,202.508 133.613,202.666 133.613 C 202.825 133.613,203.007 133.749,203.070 133.916 C 203.134 134.082,203.462 134.279,203.799 134.353 C 204.136 134.427,204.412 134.574,204.412 134.681 C 204.412 134.787,204.648 134.874,204.937 134.874 C 205.226 134.874,205.462 134.960,205.462 135.064 C 205.462 135.169,205.959 135.322,206.565 135.405 C 207.172 135.487,207.732 135.656,207.809 135.778 C 207.901 135.924,210.010 136.035,213.849 136.095 L 219.748 136.189 219.748 130.384 L 219.748 124.580 216.597 124.580 C 214.863 124.580,213.445 124.497,213.445 124.397 C 213.445 124.296,213.075 124.154,212.622 124.082 C 211.921 123.970,211.778 123.856,211.660 123.322 C 211.584 122.977,211.435 122.640,211.328 122.574 C 211.215 122.504,211.134 118.760,211.134 113.538 L 211.134 104.622 215.336 104.622 L 219.538 104.622 219.538 98.950 L 219.538 93.277 215.340 93.277 L 211.142 93.277 211.086 88.078 L 211.029 82.878 204.397 82.823 C 200.749 82.792,197.701 82.832,197.622 82.910 M318.207 82.913 C 318.032 83.088,318.020 135.767,318.195 136.222 C 318.307 136.515,319.069 136.555,324.595 136.555 L 330.869 136.555 330.928 134.192 L 330.987 131.830 331.956 132.827 C 332.488 133.375,332.991 133.824,333.074 133.824 C 333.156 133.824,333.355 133.942,333.516 134.086 C 334.211 134.710,334.449 134.874,334.655 134.874 C 334.775 134.874,334.874 134.961,334.874 135.067 C 334.874 135.174,335.158 135.323,335.504 135.399 C 335.851 135.475,336.134 135.616,336.134 135.711 C 336.134 135.807,336.607 135.950,337.185 136.029 C 337.763 136.109,338.235 136.260,338.235 136.364 C 338.235 136.469,338.513 136.555,338.853 136.555 C 339.193 136.555,339.529 136.649,339.601 136.765 C 339.678 136.890,340.999 136.975,342.857 136.975 C 344.715 136.975,346.036 136.890,346.113 136.765 C 346.185 136.649,346.616 136.555,347.071 136.555 C 347.527 136.555,347.899 136.466,347.899 136.357 C 347.899 136.249,348.325 136.096,348.845 136.018 C 349.364 135.940,349.790 135.800,349.790 135.707 C 349.790 135.614,350.074 135.475,350.420 135.399 C 350.767 135.323,351.050 135.174,351.050 135.067 C 351.050 134.961,351.239 134.874,351.471 134.874 C 351.702 134.874,351.891 134.776,351.891 134.657 C 351.891 134.538,352.056 134.378,352.258 134.301 C 352.461 134.225,352.741 134.062,352.881 133.940 C 353.532 133.375,353.771 133.193,353.865 133.193 C 354.099 133.193,356.092 131.133,356.092 130.892 C 356.092 130.746,356.329 130.442,356.618 130.215 C 356.907 129.987,357.143 129.666,357.143 129.502 C 357.143 129.337,357.236 129.202,357.349 129.202 C 357.462 129.202,357.614 128.965,357.687 128.676 C 357.759 128.388,357.895 128.151,357.989 128.151 C 358.083 128.151,358.222 127.868,358.298 127.521 C 358.374 127.174,358.524 126.891,358.630 126.891 C 358.737 126.891,358.824 126.749,358.824 126.576 C 358.824 126.402,358.909 126.261,359.014 126.261 C 359.119 126.261,359.269 125.788,359.349 125.210 C 359.428 124.632,359.572 124.160,359.668 124.160 C 359.765 124.160,359.909 123.640,359.988 123.004 C 360.067 122.369,360.216 121.849,360.318 121.849 C 360.421 121.849,360.504 121.329,360.504 120.693 C 360.504 120.058,360.599 119.538,360.714 119.538 C 360.846 119.538,360.924 118.242,360.924 116.071 C 360.924 113.901,360.846 112.605,360.714 112.605 C 360.599 112.605,360.504 112.085,360.504 111.450 C 360.504 110.814,360.423 110.294,360.323 110.294 C 360.224 110.294,360.085 109.805,360.014 109.207 C 359.943 108.609,359.803 108.066,359.702 107.999 C 359.602 107.933,359.455 107.548,359.377 107.144 C 359.206 106.269,358.777 105.252,358.579 105.252 C 358.501 105.252,358.374 104.968,358.298 104.622 C 358.222 104.275,358.075 103.992,357.971 103.992 C 357.866 103.992,357.722 103.755,357.649 103.466 C 357.577 103.178,357.454 102.941,357.375 102.941 C 357.297 102.941,357.065 102.656,356.859 102.307 C 356.354 101.453,353.413 98.529,353.059 98.529 C 352.903 98.529,352.722 98.388,352.655 98.214 C 352.589 98.041,352.389 97.899,352.212 97.899 C 352.036 97.899,351.891 97.806,351.891 97.693 C 351.891 97.580,351.654 97.428,351.366 97.355 C 351.077 97.283,350.840 97.140,350.840 97.039 C 350.840 96.937,350.462 96.793,350.000 96.719 C 349.538 96.645,349.160 96.502,349.160 96.402 C 349.160 96.301,348.931 96.218,348.652 96.218 C 348.373 96.218,348.112 96.123,348.073 96.006 C 348.034 95.889,347.223 95.733,346.270 95.660 C 345.317 95.586,344.538 95.445,344.538 95.347 C 344.538 95.249,343.876 95.168,343.067 95.168 C 342.258 95.168,341.597 95.249,341.597 95.347 C 341.597 95.445,340.770 95.584,339.761 95.655 C 338.751 95.727,337.892 95.883,337.852 96.002 C 337.813 96.121,337.552 96.218,337.272 96.218 C 336.993 96.218,336.765 96.303,336.765 96.405 C 336.765 96.508,336.443 96.652,336.051 96.726 C 335.658 96.800,335.221 96.999,335.079 97.169 C 334.938 97.340,334.692 97.479,334.533 97.479 C 334.374 97.479,334.244 97.567,334.244 97.675 C 334.244 97.783,334.064 97.928,333.845 97.997 C 333.625 98.067,332.869 98.690,332.164 99.382 L 330.882 100.640 330.882 91.707 L 330.882 82.773 324.615 82.773 C 321.168 82.773,318.284 82.836,318.207 82.913 M143.908 87.371 C 143.908 87.473,144.428 87.622,145.063 87.701 C 145.699 87.780,146.218 87.923,146.218 88.018 C 146.218 88.112,146.455 88.249,146.744 88.322 C 147.033 88.394,147.269 88.546,147.269 88.659 C 147.269 88.773,147.409 88.866,147.580 88.866 C 147.751 88.866,147.950 89.102,148.023 89.391 C 148.095 89.680,148.232 89.916,148.327 89.916 C 148.585 89.916,149.160 91.171,149.160 91.734 C 149.160 92.005,149.254 92.227,149.370 92.227 C 149.485 92.227,149.580 92.747,149.580 93.382 C 149.580 94.018,149.485 94.538,149.370 94.538 C 149.254 94.538,149.160 94.763,149.160 95.039 C 149.160 96.053,147.504 98.086,146.397 98.432 C 146.126 98.517,145.848 98.672,145.780 98.777 C 145.712 98.882,144.977 99.025,144.145 99.095 C 143.314 99.165,142.584 99.302,142.523 99.401 C 142.462 99.499,140.243 99.580,137.593 99.580 L 132.773 99.580 132.773 93.382 L 132.773 87.185 138.340 87.185 C 141.428 87.185,143.908 87.268,143.908 87.371 M280.935 92.370 C 280.559 92.421,280.252 92.552,280.252 92.660 C 280.252 92.769,279.921 92.857,279.517 92.857 C 279.112 92.857,278.782 92.944,278.782 93.051 C 278.782 93.157,278.488 93.308,278.129 93.387 C 277.309 93.567,275.420 94.537,275.420 94.778 C 275.420 94.877,275.275 94.958,275.098 94.958 C 274.922 94.958,274.722 95.100,274.656 95.273 C 274.589 95.446,274.400 95.588,274.236 95.588 C 273.699 95.588,269.907 99.594,269.612 100.473 C 269.544 100.675,269.412 100.840,269.317 100.840 C 269.223 100.840,269.080 101.053,268.998 101.313 C 268.917 101.573,268.793 101.833,268.722 101.891 C 268.447 102.115,267.857 103.415,267.857 103.799 C 267.857 104.020,267.764 104.202,267.650 104.202 C 267.535 104.202,267.381 104.580,267.308 105.042 C 267.234 105.504,267.098 105.882,267.007 105.882 C 266.915 105.882,266.774 106.497,266.694 107.248 C 266.613 107.999,266.464 108.613,266.362 108.613 C 266.260 108.613,266.176 109.133,266.176 109.769 C 266.176 110.404,266.082 110.924,265.966 110.924 C 265.835 110.924,265.756 112.220,265.756 114.391 C 265.756 116.562,265.835 117.857,265.966 117.857 C 266.082 117.857,266.176 118.377,266.176 119.013 C 266.176 119.648,266.258 120.168,266.357 120.168 C 266.456 120.168,266.598 120.754,266.673 121.469 C 266.748 122.185,266.891 122.823,266.992 122.887 C 267.093 122.952,267.243 123.406,267.325 123.897 C 267.407 124.388,267.560 124.790,267.666 124.790 C 267.771 124.790,267.857 124.941,267.857 125.125 C 267.857 125.460,268.467 126.690,268.733 126.893 C 268.811 126.952,268.939 127.259,269.019 127.576 C 269.098 127.892,269.241 128.151,269.336 128.151 C 269.432 128.151,269.577 128.364,269.659 128.624 C 269.741 128.884,269.984 129.250,270.198 129.436 C 270.413 129.623,270.588 129.846,270.588 129.932 C 270.588 130.200,273.620 133.185,273.897 133.189 C 274.041 133.191,274.160 133.286,274.160 133.399 C 274.160 133.513,274.389 133.663,274.670 133.733 C 274.950 133.804,275.231 133.995,275.293 134.158 C 275.356 134.321,275.599 134.454,275.834 134.454 C 276.068 134.454,276.261 134.548,276.261 134.664 C 276.261 134.779,276.402 134.874,276.576 134.874 C 276.749 134.874,276.891 134.961,276.891 135.067 C 276.891 135.174,277.174 135.323,277.521 135.399 C 277.868 135.475,278.151 135.618,278.151 135.716 C 278.151 135.814,278.671 135.959,279.307 136.039 C 279.942 136.118,280.462 136.267,280.462 136.369 C 280.462 136.471,280.793 136.555,281.197 136.555 C 281.602 136.555,281.933 136.649,281.933 136.765 C 281.933 136.895,283.084 136.975,284.967 136.975 C 286.763 136.975,288.053 136.889,288.130 136.765 C 288.202 136.649,288.633 136.555,289.088 136.555 C 289.543 136.555,289.916 136.473,289.916 136.373 C 289.916 136.273,290.322 136.136,290.818 136.068 C 291.314 136.000,292.000 135.799,292.341 135.620 C 292.683 135.442,293.080 135.296,293.225 135.295 C 293.369 135.295,293.487 135.200,293.487 135.084 C 293.487 134.968,293.629 134.874,293.803 134.874 C 293.976 134.874,294.118 134.786,294.118 134.678 C 294.118 134.570,294.321 134.418,294.569 134.339 C 295.111 134.167,296.655 132.816,297.584 131.702 L 298.004 131.197 298.063 133.666 L 298.123 136.134 304.944 136.134 L 311.765 136.134 311.765 114.391 L 311.765 92.647 304.937 92.647 L 298.109 92.647 298.093 95.326 C 298.084 96.799,298.025 97.877,297.964 97.722 C 297.765 97.225,295.685 95.227,295.208 95.076 C 294.955 94.995,294.748 94.842,294.748 94.734 C 294.748 94.626,294.606 94.538,294.433 94.538 C 294.259 94.538,294.118 94.451,294.118 94.344 C 294.118 94.238,293.834 94.089,293.487 94.013 C 293.141 93.936,292.857 93.795,292.857 93.697 C 292.857 93.600,292.575 93.459,292.229 93.383 C 291.884 93.307,291.548 93.158,291.482 93.051 C 291.416 92.944,291.103 92.857,290.786 92.857 C 290.469 92.857,290.092 92.739,289.948 92.595 C 289.685 92.332,282.509 92.153,280.935 92.370 M172.479 114.706 L 172.479 136.134 179.307 136.134 L 186.134 136.134 186.134 114.706 L 186.134 93.277 179.307 93.277 L 172.479 93.277 172.479 114.706 M378.151 93.667 C 378.151 93.766,377.487 93.909,376.675 93.984 C 375.862 94.060,375.012 94.215,374.784 94.330 C 373.769 94.839,373.583 94.913,372.945 95.053 C 372.573 95.135,372.269 95.278,372.269 95.371 C 372.269 95.465,371.938 95.604,371.534 95.679 C 371.129 95.755,370.798 95.908,370.798 96.018 C 370.798 96.128,370.691 96.218,370.560 96.218 C 370.429 96.218,370.102 96.455,369.835 96.744 C 369.567 97.033,369.264 97.269,369.162 97.269 C 368.855 97.269,366.853 99.315,366.705 99.779 C 366.630 100.016,366.480 100.210,366.372 100.210 C 366.265 100.210,366.176 100.352,366.176 100.525 C 366.176 100.699,366.089 100.840,365.983 100.840 C 365.877 100.840,365.723 101.148,365.642 101.523 C 365.560 101.899,365.408 102.260,365.304 102.327 C 365.200 102.393,365.057 102.937,364.986 103.535 C 364.915 104.133,364.776 104.622,364.677 104.622 C 364.577 104.622,364.496 105.709,364.496 107.038 C 364.496 108.367,364.577 109.454,364.677 109.454 C 364.776 109.454,364.911 109.903,364.976 110.452 C 365.042 111.001,365.243 111.733,365.424 112.080 C 365.606 112.426,365.754 112.822,365.755 112.959 C 365.756 113.095,365.945 113.267,366.176 113.340 C 366.408 113.414,366.597 113.622,366.597 113.804 C 366.597 114.167,368.348 115.966,368.701 115.966 C 368.822 115.966,368.975 116.108,369.042 116.282 C 369.108 116.455,369.288 116.597,369.440 116.597 C 369.593 116.597,369.847 116.715,370.005 116.859 C 370.483 117.296,371.647 117.857,372.076 117.857 C 372.298 117.857,372.479 117.951,372.479 118.065 C 372.479 118.179,372.857 118.333,373.319 118.407 C 373.782 118.481,374.160 118.613,374.160 118.700 C 374.160 118.788,374.680 118.924,375.315 119.004 C 375.951 119.083,376.471 119.236,376.471 119.343 C 376.471 119.450,376.801 119.538,377.206 119.538 C 377.610 119.538,377.941 119.623,377.941 119.727 C 377.941 119.830,378.603 119.982,379.412 120.063 C 380.221 120.144,380.882 120.285,380.882 120.375 C 380.882 120.466,381.402 120.605,382.038 120.684 C 382.673 120.764,383.193 120.916,383.193 121.024 C 383.193 121.131,383.372 121.218,383.589 121.218 C 383.807 121.218,384.256 121.360,384.587 121.532 C 384.918 121.705,385.344 121.847,385.534 121.847 C 385.724 121.848,385.934 121.991,386.000 122.164 C 386.067 122.337,386.266 122.479,386.443 122.479 C 386.620 122.479,386.765 122.600,386.765 122.748 C 386.765 122.896,386.954 123.153,387.185 123.319 C 387.630 123.640,387.804 125.210,387.395 125.210 C 387.279 125.210,387.185 125.304,387.185 125.418 C 387.185 125.737,386.494 126.471,386.193 126.471 C 386.045 126.471,385.924 126.565,385.924 126.681 C 385.924 126.796,385.743 126.891,385.522 126.891 C 385.300 126.891,385.081 127.005,385.034 127.145 C 384.975 127.322,384.265 127.398,382.668 127.398 C 381.071 127.398,380.361 127.322,380.302 127.145 C 380.255 127.005,380.036 126.891,379.814 126.891 C 379.593 126.891,379.412 126.796,379.412 126.681 C 379.412 126.565,379.291 126.471,379.143 126.471 C 378.996 126.471,378.719 126.305,378.528 126.103 C 378.337 125.901,378.056 125.622,377.903 125.483 C 377.368 124.995,377.117 124.611,376.982 124.073 C 376.907 123.774,376.761 123.529,376.658 123.529 C 376.555 123.529,376.471 123.293,376.471 123.004 L 376.471 122.479 369.822 122.479 L 363.173 122.479 363.314 124.317 C 363.392 125.328,363.547 126.187,363.660 126.225 C 363.773 126.264,363.866 126.439,363.866 126.614 C 363.866 126.962,364.494 128.403,364.719 128.571 C 364.796 128.629,364.932 128.913,365.022 129.202 C 365.111 129.491,365.408 129.935,365.680 130.190 C 365.953 130.444,366.177 130.728,366.177 130.820 C 366.179 131.088,367.514 132.467,368.187 132.896 C 368.525 133.112,368.878 133.409,368.971 133.556 C 369.063 133.703,369.276 133.824,369.443 133.824 C 369.611 133.824,369.748 133.916,369.748 134.030 C 369.748 134.143,369.984 134.295,370.273 134.368 C 370.562 134.440,370.798 134.584,370.798 134.687 C 370.798 134.790,370.940 134.874,371.113 134.874 C 371.287 134.874,371.429 134.958,371.429 135.061 C 371.429 135.163,371.759 135.309,372.164 135.385 C 372.568 135.461,372.899 135.612,372.899 135.721 C 372.899 135.830,373.277 135.980,373.739 136.054 C 374.202 136.128,374.580 136.271,374.580 136.371 C 374.580 136.472,374.750 136.555,374.958 136.555 C 375.166 136.555,375.427 136.645,375.537 136.756 C 375.648 136.866,376.517 137.021,377.470 137.101 C 378.422 137.180,379.202 137.326,379.202 137.425 C 379.202 137.524,380.903 137.605,382.983 137.605 C 385.063 137.605,386.765 137.524,386.765 137.425 C 386.765 137.327,387.441 137.189,388.268 137.120 C 389.095 137.050,389.870 136.895,389.991 136.774 C 390.111 136.653,390.428 136.555,390.693 136.555 C 390.959 136.555,391.176 136.461,391.176 136.347 C 391.176 136.233,391.555 136.079,392.017 136.005 C 392.479 135.931,392.857 135.798,392.857 135.710 C 392.857 135.622,393.112 135.486,393.422 135.408 C 393.733 135.330,394.135 135.097,394.315 134.890 C 394.495 134.683,394.856 134.447,395.116 134.365 C 395.376 134.283,395.588 134.124,395.588 134.013 C 395.588 133.901,395.746 133.750,395.940 133.675 C 396.624 133.413,398.082 131.748,398.525 130.725 C 398.637 130.465,398.803 130.252,398.893 130.252 C 399.983 130.252,400.436 121.561,399.460 119.380 C 399.240 118.889,398.988 118.487,398.900 118.487 C 398.812 118.487,398.739 118.343,398.739 118.166 C 398.739 117.989,398.601 117.791,398.432 117.726 C 398.263 117.661,398.064 117.414,397.988 117.177 C 397.860 116.774,396.753 115.546,396.517 115.546 C 396.458 115.546,396.159 115.313,395.852 115.028 C 395.545 114.744,395.029 114.452,394.705 114.381 C 394.382 114.310,394.118 114.165,394.118 114.059 C 394.118 113.953,393.976 113.866,393.803 113.866 C 393.629 113.866,393.487 113.779,393.487 113.672 C 393.487 113.566,393.204 113.416,392.857 113.340 C 392.511 113.264,392.227 113.124,392.227 113.028 C 392.227 112.933,391.754 112.790,391.176 112.710 C 390.599 112.631,390.126 112.491,390.126 112.399 C 390.126 112.308,389.701 112.169,389.181 112.091 C 388.661 112.013,388.235 111.860,388.235 111.752 C 388.235 111.643,387.904 111.555,387.500 111.555 C 387.096 111.555,386.765 111.469,386.765 111.365 C 386.765 111.261,386.197 111.110,385.504 111.029 C 384.810 110.949,384.196 110.807,384.139 110.714 C 384.081 110.621,383.467 110.480,382.773 110.399 C 382.080 110.319,381.513 110.168,381.513 110.063 C 381.513 109.959,381.276 109.874,380.987 109.874 C 380.699 109.874,380.462 109.787,380.462 109.681 C 380.462 109.574,380.179 109.425,379.832 109.349 C 379.485 109.273,379.202 109.123,379.202 109.017 C 379.202 108.911,379.075 108.824,378.919 108.824 C 378.488 108.824,377.521 107.911,377.521 107.504 C 377.521 107.305,377.426 107.143,377.311 107.143 C 377.053 107.143,377.030 106.371,377.284 106.214 C 377.384 106.152,377.523 105.818,377.593 105.472 C 377.682 105.027,377.874 104.804,378.250 104.710 C 378.542 104.636,378.782 104.492,378.782 104.389 C 378.782 104.286,378.923 104.202,379.097 104.202 C 379.270 104.202,379.412 104.107,379.412 103.992 C 379.412 103.866,380.252 103.782,381.513 103.782 C 382.773 103.782,383.613 103.866,383.613 103.992 C 383.613 104.107,383.759 104.202,383.936 104.202 C 384.240 104.202,385.275 104.769,385.504 105.061 C 385.562 105.135,385.822 105.262,386.082 105.343 C 386.362 105.430,386.555 105.659,386.555 105.903 C 386.555 106.130,386.696 106.370,386.870 106.437 C 387.043 106.503,387.185 106.784,387.185 107.060 C 387.185 107.337,387.279 107.563,387.395 107.563 C 387.511 107.563,387.605 107.799,387.605 108.088 L 387.605 108.613 393.803 108.613 L 400.000 108.613 400.000 108.103 C 400.000 107.057,399.539 104.304,399.353 104.237 C 399.247 104.198,399.160 103.938,399.160 103.659 C 399.160 103.380,399.073 103.151,398.966 103.151 C 398.860 103.151,398.711 102.868,398.634 102.521 C 398.558 102.174,398.419 101.891,398.325 101.891 C 398.232 101.891,398.093 101.646,398.018 101.347 C 397.943 101.048,397.649 100.553,397.365 100.246 C 397.081 99.940,396.849 99.619,396.849 99.534 C 396.849 99.262,394.728 97.269,394.440 97.269 C 394.287 97.269,394.108 97.127,394.042 96.954 C 393.975 96.780,393.735 96.639,393.508 96.639 C 393.280 96.639,393.036 96.451,392.962 96.218 C 392.889 95.987,392.717 95.795,392.580 95.791 C 392.444 95.787,391.954 95.601,391.492 95.378 C 391.029 95.155,390.486 94.969,390.284 94.965 C 390.081 94.961,389.916 94.863,389.916 94.748 C 389.916 94.632,389.680 94.538,389.391 94.538 C 389.102 94.538,388.866 94.450,388.866 94.342 C 388.866 94.235,388.109 94.081,387.185 94.000 C 386.261 93.919,385.504 93.771,385.504 93.670 C 385.504 93.570,383.850 93.487,381.828 93.487 C 379.806 93.487,378.151 93.568,378.151 93.667 M290.546 104.388 C 290.546 104.490,291.066 104.638,291.702 104.718 C 292.337 104.797,292.857 104.940,292.857 105.034 C 292.857 105.129,293.093 105.266,293.382 105.338 C 293.671 105.411,293.908 105.563,293.908 105.676 C 293.908 105.790,293.995 105.882,294.103 105.882 C 294.388 105.882,295.798 107.257,295.798 107.535 C 295.798 107.666,295.891 107.773,296.004 107.773 C 296.118 107.773,296.270 108.009,296.342 108.298 C 296.415 108.587,296.558 108.824,296.661 108.824 C 296.764 108.824,296.849 108.965,296.849 109.139 C 296.849 109.312,296.933 109.454,297.035 109.454 C 297.138 109.454,297.289 109.808,297.370 110.241 C 297.451 110.674,297.626 111.095,297.758 111.177 C 298.095 111.385,298.099 117.603,297.762 117.812 C 297.629 117.895,297.453 118.411,297.371 118.960 C 297.288 119.509,297.137 119.958,297.035 119.958 C 296.933 119.958,296.849 120.090,296.849 120.251 C 296.849 120.412,296.707 120.598,296.534 120.664 C 296.360 120.731,296.218 120.934,296.218 121.117 C 296.218 121.449,295.253 122.479,294.941 122.479 C 294.851 122.479,294.719 122.659,294.649 122.878 C 294.580 123.098,294.278 123.339,293.980 123.414 C 293.681 123.489,293.299 123.687,293.132 123.855 C 292.964 124.023,292.605 124.160,292.334 124.160 C 292.063 124.160,291.802 124.278,291.754 124.422 C 291.634 124.781,286.399 124.797,286.177 124.439 C 286.094 124.304,285.766 124.128,285.450 124.049 C 285.133 123.969,284.874 123.820,284.874 123.717 C 284.874 123.614,284.734 123.529,284.564 123.529 C 284.186 123.529,281.787 121.123,281.611 120.567 C 281.541 120.348,281.404 120.168,281.305 120.168 C 281.206 120.168,281.060 119.861,280.980 119.485 C 280.900 119.110,280.742 118.688,280.629 118.548 C 280.516 118.408,280.372 117.720,280.308 117.019 C 280.245 116.318,280.111 115.694,280.012 115.633 C 279.913 115.572,279.832 115.013,279.832 114.391 C 279.832 113.769,279.913 113.210,280.012 113.149 C 280.111 113.087,280.246 112.454,280.310 111.741 C 280.375 111.028,280.518 110.388,280.629 110.317 C 280.739 110.247,280.896 109.882,280.978 109.506 C 281.059 109.131,281.213 108.824,281.319 108.824 C 281.426 108.824,281.513 108.682,281.513 108.508 C 281.513 108.335,281.601 108.193,281.709 108.193 C 281.816 108.193,281.967 107.995,282.044 107.752 C 282.218 107.206,282.725 106.689,283.584 106.181 C 283.947 105.967,284.244 105.728,284.244 105.650 C 284.244 105.572,284.503 105.443,284.819 105.363 C 285.136 105.284,285.453 105.125,285.524 105.009 C 285.596 104.894,286.046 104.748,286.524 104.683 C 287.003 104.619,287.395 104.484,287.395 104.384 C 287.395 104.284,288.104 104.202,288.971 104.202 C 289.837 104.202,290.546 104.285,290.546 104.388 M340.214 106.695 C 340.276 106.795,340.766 106.927,341.303 106.987 C 341.840 107.048,342.338 107.190,342.410 107.304 C 342.483 107.417,342.845 107.576,343.215 107.656 C 343.611 107.742,343.942 107.970,344.017 108.208 C 344.088 108.431,344.267 108.613,344.415 108.613 C 344.811 108.613,345.506 109.279,345.677 109.821 C 345.759 110.081,345.915 110.294,346.023 110.294 C 346.130 110.294,346.218 110.439,346.218 110.616 C 346.218 110.793,346.360 110.992,346.534 111.058 C 346.707 111.125,346.849 111.398,346.849 111.665 C 346.849 111.932,346.942 112.181,347.057 112.220 C 347.171 112.258,347.326 112.881,347.402 113.603 C 347.477 114.325,347.620 114.916,347.719 114.916 C 347.818 114.916,347.899 115.530,347.899 116.282 C 347.899 117.033,347.817 117.647,347.716 117.647 C 347.616 117.647,347.469 118.214,347.391 118.908 C 347.312 119.601,347.181 120.168,347.098 120.168 C 346.965 120.168,346.218 121.687,346.218 121.956 C 346.218 122.199,344.050 124.160,343.781 124.160 C 343.620 124.160,343.487 124.247,343.487 124.354 C 343.487 124.574,342.305 125.210,341.897 125.210 C 341.751 125.210,341.598 125.311,341.557 125.434 C 341.453 125.746,337.332 125.757,337.228 125.445 C 337.185 125.316,336.976 125.210,336.764 125.210 C 336.350 125.210,335.181 124.642,334.711 124.212 C 334.553 124.068,334.337 123.950,334.231 123.950 C 333.950 123.950,333.193 123.263,333.193 123.008 C 333.193 122.888,332.981 122.549,332.721 122.255 C 332.096 121.548,331.513 120.439,331.513 119.958 C 331.513 119.746,331.395 119.534,331.250 119.485 C 330.874 119.360,330.873 112.993,331.250 112.868 C 331.394 112.820,331.513 112.649,331.513 112.490 C 331.513 112.061,332.207 110.635,332.511 110.441 C 332.655 110.349,332.773 110.132,332.773 109.959 C 332.773 109.686,333.135 109.287,334.182 108.407 C 334.322 108.289,334.524 108.193,334.633 108.193 C 334.741 108.193,334.883 108.051,334.950 107.878 C 335.016 107.705,335.255 107.563,335.480 107.563 C 335.705 107.563,335.921 107.467,335.961 107.349 C 336.000 107.231,336.528 107.076,337.134 107.005 C 337.740 106.933,338.235 106.793,338.235 106.693 C 338.235 106.457,340.067 106.458,340.214 106.695 M146.804 111.239 C 146.886 111.355,147.266 111.623,147.647 111.835 C 148.767 112.459,150.201 113.978,150.344 114.693 C 150.416 115.052,150.557 115.396,150.657 115.458 C 150.758 115.520,150.840 116.363,150.840 117.332 C 150.840 118.300,150.758 119.144,150.657 119.206 C 150.557 119.268,150.417 119.606,150.347 119.958 C 150.224 120.572,149.995 120.949,149.415 121.491 C 148.878 121.993,148.614 122.171,147.791 122.582 C 147.330 122.812,146.886 123.096,146.804 123.212 C 146.710 123.345,144.067 123.450,139.714 123.492 L 132.773 123.560 132.773 117.227 L 132.773 110.894 139.714 110.962 C 144.021 111.004,146.711 111.109,146.804 111.239 " stroke="none" fill="#040404" fill-rule="evenodd"></path><path id="path4" d="" stroke="none" fill="#4440c0" fill-rule="evenodd"></path></g></svg>