<?xml version="1.0" encoding="UTF-8"?>
<svg id="Layer_1" data-name="Layer 1" xmlns="http://www.w3.org/2000/svg" viewBox="0 0 1080 163">
  <defs>
    <style>
      .cls-1 {
        fill: #fffdfd;
      }
    </style>
  </defs>
  <path class="cls-1" d="M257.43,45.15c7.39,5.93,12.17,13.95,14.35,24.06h-22.68c-1.67-4.09-4.24-7.31-7.7-9.65-3.47-2.34-7.58-3.51-12.34-3.51-6.26,0-11.32,2.3-15.16,6.89-3.84,4.59-5.76,10.73-5.76,18.42s1.92,13.8,5.76,18.36c3.84,4.55,8.9,6.83,15.16,6.83,4.76,0,8.87-1.17,12.34-3.51,3.46-2.34,6.03-5.51,7.7-9.52h22.68c-2.17,10.02-6.95,18.02-14.35,23.99-7.39,5.97-16.73,8.96-28,8.96-8.6,0-16.16-1.9-22.68-5.7-6.51-3.8-11.55-9.13-15.1-15.97-3.55-6.85-5.33-14.66-5.33-23.43s1.77-16.58,5.33-23.43c3.55-6.85,8.58-12.17,15.1-15.97,6.51-3.8,14.07-5.7,22.68-5.7,11.28,0,20.61,2.97,28,8.9Z"/>
  <path class="cls-1" d="M305.23,94.64v31.07h-21.42V37.14h34.7c10.53,0,18.54,2.61,24.06,7.83,5.51,5.22,8.27,12.26,8.27,21.11,0,5.51-1.23,10.42-3.7,14.72-2.46,4.3-6.12,7.69-10.96,10.15-4.85,2.46-10.74,3.7-17.67,3.7h-13.28Zm23.81-28.57c0-7.77-4.3-11.65-12.9-11.65h-10.9v23.05h10.9c8.6,0,12.9-3.8,12.9-11.4Z"/>
  <path class="cls-1" d="M415.11,125.72l-18.67-27.56-16.04,27.56h-24.56l28.31-45.61-29.19-42.98h25.43l18.17,26.69,15.66-26.69h24.43l-27.94,44.6,29.82,43.98h-25.43Z"/>
  <path class="cls-1" d="M522.49,125.72l-23.05-36.08h-12.4v36.08h-11.4V37.39h29.07c10.02,0,17.54,2.4,22.55,7.2,5.01,4.8,7.52,11.17,7.52,19.11,0,7.18-2.01,12.97-6.02,17.35-4.01,4.38-9.82,7.12-17.41,8.21l24.05,36.46h-12.9Zm-35.46-44.35h16.66c12.95,0,19.42-5.68,19.42-17.04s-6.47-17.04-19.42-17.04h-16.66v34.08Z"/>
  <path class="cls-1" d="M560.07,46.66v30.2h33.58v8.77h-33.58v30.82h37.34v9.27h-48.74V37.39h48.74v9.27h-37.34Z"/>
  <path class="cls-1" d="M664.94,114.44c-2,3.59-5.05,6.52-9.14,8.77-4.09,2.25-9.15,3.38-15.16,3.38s-11.05-1.07-15.6-3.19c-4.55-2.13-8.19-5.05-10.9-8.77-2.71-3.72-4.28-7.96-4.7-12.72h12.15c.25,2.51,1.1,4.95,2.57,7.33,1.46,2.38,3.55,4.34,6.26,5.89,2.71,1.55,5.99,2.32,9.83,2.32,5.01,0,8.85-1.34,11.53-4.01,2.67-2.67,4.01-6.1,4.01-10.27,0-3.59-.94-6.52-2.82-8.77-1.88-2.25-4.2-4.03-6.95-5.33-2.76-1.29-6.52-2.69-11.28-4.2-5.6-1.84-10.09-3.57-13.47-5.2-3.38-1.63-6.26-4.07-8.65-7.33-2.38-3.26-3.57-7.56-3.57-12.91,0-4.59,1.11-8.65,3.32-12.15,2.21-3.51,5.39-6.22,9.52-8.14,4.13-1.92,9-2.88,14.6-2.88,8.69,0,15.58,2.11,20.67,6.33,5.09,4.22,8.06,9.59,8.9,16.1h-12.28c-.67-3.51-2.46-6.6-5.39-9.27-2.92-2.67-6.89-4.01-11.9-4.01-4.59,0-8.27,1.19-11.02,3.57-2.76,2.38-4.14,5.74-4.14,10.09,0,3.43,.9,6.2,2.7,8.33,1.8,2.13,4.03,3.8,6.7,5.01,2.67,1.21,6.35,2.57,11.02,4.07,5.68,1.84,10.25,3.59,13.72,5.26,3.46,1.67,6.41,4.2,8.83,7.58,2.42,3.38,3.63,7.87,3.63,13.47,0,4.18-1,8.06-3.01,11.65Z"/>
  <path class="cls-1" d="M694.64,46.66v30.2h33.58v8.77h-33.58v30.82h37.34v9.27h-48.74V37.39h48.74v9.27h-37.34Z"/>
  <path class="cls-1" d="M798.38,105.29h-38.84l-7.39,20.42h-12.28l32.7-86.7h12.91l32.58,86.7h-12.28l-7.39-20.42Zm-3.26-8.89l-16.16-44.6-16.16,44.6h32.33Z"/>
  <path class="cls-1" d="M876.44,125.72l-23.05-36.08h-12.4v36.08h-11.4V37.39h29.07c10.02,0,17.54,2.4,22.55,7.2,5.01,4.8,7.52,11.17,7.52,19.11,0,7.18-2.01,12.97-6.02,17.35-4.01,4.38-9.82,7.12-17.41,8.21l24.05,36.46h-12.9Zm-35.46-44.35h16.66c12.95,0,19.42-5.68,19.42-17.04s-6.47-17.04-19.42-17.04h-16.66v34.08Z"/>
  <path class="cls-1" d="M968.4,44.47c7.02,5.3,11.86,12.55,14.53,21.74h-12.03c-2.25-5.84-5.89-10.5-10.9-13.97-5.01-3.46-11.15-5.2-18.42-5.2-5.76,0-10.92,1.4-15.47,4.2-4.55,2.8-8.14,6.81-10.78,12.03-2.63,5.22-3.95,11.34-3.95,18.35s1.32,12.99,3.95,18.17c2.63,5.18,6.22,9.17,10.78,11.96,4.55,2.8,9.71,4.2,15.47,4.2,7.26,0,13.41-1.73,18.42-5.2,5.01-3.47,8.65-8.12,10.9-13.97h12.03c-2.67,9.19-7.52,16.44-14.53,21.74-7.02,5.31-15.91,7.96-26.69,7.96-8.27,0-15.58-1.9-21.93-5.7-6.35-3.8-11.3-9.1-14.85-15.91-3.55-6.81-5.33-14.55-5.33-23.24s1.78-16.58,5.33-23.43c3.55-6.85,8.5-12.17,14.85-15.97,6.35-3.8,13.65-5.7,21.93-5.7,10.77,0,19.67,2.65,26.69,7.96Z"/>
  <path class="cls-1" d="M1066,37.39V125.72h-11.53v-40.85h-44.86v40.85h-11.4V37.39h11.4v38.21h44.86V37.39h11.53Z"/>
  <g id="Ebene_3" data-name="Ebene 3">
    <path class="cls-1" d="M73.91,21c-34.08,0-61.81,27.73-61.81,61.81,0,6.56,1.03,12.88,2.93,18.81l11.09-5.36c-1.21-4.29-1.87-8.8-1.87-13.46,0-27.37,22.27-49.65,49.65-49.65,17.89,0,33.6,9.51,42.33,23.75L35.5,114.2c-1.8-2.19-3.41-4.55-4.81-7.03l-10.59,5.99c4.18,7.39,9.84,13.82,16.57,18.92h.01s.43,.33,.43,.33L116.25,56.9c4.63,7.54,7.31,16.41,7.31,25.9,0,27.37-22.27,49.65-49.65,49.65-6.09,0-11.92-1.11-17.31-3.12l-8.57,9.59c7.88,3.65,16.64,5.68,25.88,5.68,34.08,0,61.81-27.73,61.81-61.81s-27.73-61.8-61.81-61.8Z"/>
  </g>
</svg>