<?xml version="1.0" encoding="UTF-8" ?>
<!DOCTYPE svg PUBLIC "-//W3C//DTD SVG 1.1//EN" "http://www.w3.org/Graphics/SVG/1.1/DTD/svg11.dtd">
<svg width="164pt" height="35pt" viewBox="0 0 164 35" version="1.1" xmlns="http://www.w3.org/2000/svg">
<g id="#9855fcff">
<path fill="#9855fc" opacity="1.00" d=" M 1.79 0.00 L 20.46 0.00 C 23.24 -0.71 23.44 2.21 23.47 3.95 C 23.48 12.64 23.46 21.32 23.48 30.01 C 23.59 31.67 23.01 33.22 22.26 34.67 L 22.27 32.99 C 22.22 22.42 22.40 11.84 22.17 1.27 C 15.79 1.15 9.40 1.16 3.02 1.27 C 2.71 0.95 2.10 0.32 1.79 0.00 Z" />
<path fill="#9855fc" opacity="1.00" d=" M 8.11 3.56 C 10.26 2.13 13.22 2.16 15.37 3.57 C 12.96 3.84 10.52 3.86 8.11 3.56 Z" />
<path fill="#9855fc" opacity="1.00" d=" M 3.34 5.37 C 8.93 5.30 14.51 5.33 20.10 5.34 C 20.24 12.47 20.19 19.59 20.13 26.72 C 19.38 26.72 17.86 26.72 17.10 26.72 C 17.03 28.42 16.96 30.12 16.86 31.81 C 15.09 30.23 13.45 28.51 11.85 26.75 C 9.01 26.73 6.17 26.73 3.33 26.70 C 3.28 19.59 3.25 12.48 3.34 5.37 M 4.49 6.53 C 4.48 12.86 4.49 19.20 4.48 25.53 C 7.09 25.53 9.70 25.53 12.31 25.55 C 13.50 26.78 14.70 28.01 15.89 29.25 C 15.87 28.35 15.83 26.57 15.81 25.68 C 16.87 25.60 17.93 25.53 18.99 25.45 C 18.97 19.15 18.98 12.84 18.98 6.53 C 14.15 6.53 9.32 6.53 4.49 6.53 Z" />
<path fill="#9855fc" opacity="1.00" d=" M 154.16 6.74 C 155.14 6.72 156.12 6.71 157.10 6.69 C 157.11 9.11 157.10 11.54 157.07 13.97 C 159.10 13.73 161.74 13.12 163.05 15.23 C 164.40 17.67 163.76 20.62 163.94 23.29 C 163.24 23.29 161.83 23.30 161.13 23.30 C 160.71 20.98 162.35 15.47 158.31 16.28 C 156.11 17.81 157.50 21.06 157.05 23.33 C 156.33 23.32 154.89 23.29 154.17 23.27 C 154.16 17.76 154.17 12.25 154.16 6.74 Z" />
<path fill="#9855fc" opacity="1.00" d=" M 115.06 13.64 C 115.83 13.93 116.60 14.22 117.38 14.52 C 118.82 13.89 120.38 13.72 121.93 13.65 C 121.68 14.26 121.17 15.46 120.92 16.07 C 119.89 16.26 118.87 16.46 117.85 16.67 C 117.88 18.87 117.89 21.06 117.92 23.25 C 116.96 23.27 116.00 23.29 115.04 23.30 C 115.03 20.08 115.04 16.86 115.06 13.64 Z" />
<path fill="#9855fc" opacity="1.00" d=" M 122.43 18.08 C 122.54 14.64 126.82 12.35 129.71 14.26 C 131.36 15.18 131.52 17.22 132.08 18.81 C 129.59 19.00 127.09 19.09 124.61 19.29 C 125.97 20.95 127.98 21.05 129.97 20.79 C 131.79 21.42 130.49 23.41 129.00 23.28 C 125.72 24.64 121.87 21.58 122.43 18.08 M 124.84 17.26 C 126.37 17.32 127.91 17.33 129.44 17.31 C 127.98 15.59 126.34 15.65 124.84 17.26 Z" />
<path fill="#9855fc" opacity="1.00" d=" M 134.00 13.91 C 136.22 13.94 139.49 12.70 140.81 15.20 C 141.47 17.81 141.16 20.54 141.26 23.21 C 138.55 22.94 133.83 24.82 133.12 20.91 C 132.53 17.38 136.99 17.34 139.27 16.96 C 137.76 15.82 135.88 16.13 134.14 16.10 C 134.11 15.55 134.03 14.46 134.00 13.91 M 136.05 19.23 C 135.60 20.18 136.18 21.15 136.33 22.08 C 137.45 21.32 138.45 20.41 139.30 19.35 C 138.49 19.32 136.86 19.26 136.05 19.23 Z" />
<path fill="#9855fc" opacity="1.00" d=" M 143.25 19.03 C 142.75 14.19 148.83 12.13 152.19 15.01 C 151.87 15.48 151.24 16.44 150.92 16.92 C 149.07 15.89 145.57 16.06 146.14 18.97 C 146.41 21.68 149.43 20.88 151.10 20.03 C 151.42 20.51 152.06 21.47 152.38 21.95 C 149.32 24.74 143.58 23.59 143.25 19.03 Z" />
</g>
<g id="#9855fbfe">
<path fill="#9855fb" opacity="1.00" d=" M 0.00 1.73 C 0.28 1.61 0.84 1.37 1.11 1.25 C 1.34 11.50 1.06 21.76 1.26 32.02 C 0.95 32.31 0.32 32.89 0.00 33.18 L 0.00 1.73 Z" />
</g>
<g id="#ffffffff">
<path fill="#ffffff" opacity="1.00" d=" M 43.53 23.17 C 43.34 17.73 43.31 12.27 43.55 6.83 C 44.24 6.76 45.62 6.61 46.31 6.53 C 46.37 9.02 46.37 11.51 46.34 14.00 C 48.30 13.72 50.74 13.11 52.12 15.00 C 53.78 17.40 52.97 20.57 53.18 23.30 C 52.24 23.31 51.30 23.31 50.36 23.32 C 49.93 21.00 51.64 16.24 48.06 16.14 C 45.09 17.21 46.84 21.13 46.30 23.47 C 45.61 23.40 44.22 23.24 43.53 23.17 Z" />
<path fill="#ffffff" opacity="1.00" d=" M 35.53 13.63 C 35.37 11.53 36.06 10.15 38.46 10.56 C 38.47 11.36 38.49 12.95 38.50 13.75 C 39.14 13.78 40.42 13.84 41.06 13.87 C 41.06 14.47 41.06 15.67 41.06 16.27 C 40.40 16.30 39.08 16.36 38.42 16.39 C 38.66 18.41 37.65 21.86 41.00 20.83 C 41.12 21.40 41.36 22.54 41.48 23.12 C 39.80 23.10 37.63 24.23 36.25 22.73 C 35.34 20.82 35.78 18.61 35.61 16.56 C 35.17 16.17 34.28 15.38 33.84 14.98 C 34.26 14.64 35.11 13.96 35.53 13.63 Z" />
<path fill="#ffffff" opacity="1.00" d=" M 56.65 22.24 C 53.50 19.46 55.62 13.39 59.97 13.59 C 63.01 13.39 64.65 16.36 64.64 19.03 C 62.25 19.06 59.86 19.05 57.46 19.17 C 58.81 22.25 62.42 19.63 64.33 21.98 C 62.08 23.48 58.80 24.45 56.65 22.24 M 57.55 17.27 C 59.10 17.34 60.65 17.34 62.20 17.27 C 60.75 15.54 59.07 15.68 57.55 17.27 Z" />
<path fill="#ffffff" opacity="1.00" d=" M 68.29 14.22 C 71.50 12.19 76.02 15.24 75.54 18.96 C 75.42 22.41 71.16 24.84 68.21 22.90 C 64.96 21.15 64.99 15.90 68.29 14.22 M 69.43 16.55 C 67.00 17.97 69.20 22.30 71.80 20.72 C 74.38 19.22 72.06 14.77 69.43 16.55 Z" />
<path fill="#ffffff" opacity="1.00" d=" M 77.69 13.87 C 80.06 14.74 82.43 13.58 84.85 13.73 C 84.23 15.75 82.25 16.17 80.61 17.02 C 80.45 19.06 80.61 21.12 80.41 23.15 C 79.74 23.24 78.40 23.40 77.73 23.48 C 77.66 20.28 77.69 17.08 77.69 13.87 Z" />
<path fill="#ffffff" opacity="1.00" d=" M 86.15 21.78 C 83.52 18.79 85.88 13.31 90.01 13.59 C 93.02 13.46 94.52 16.42 94.57 19.03 C 92.17 19.06 89.76 19.05 87.37 19.18 C 88.77 22.27 92.33 19.60 94.21 21.99 C 91.86 23.70 88.14 24.43 86.15 21.78 M 87.50 17.30 C 89.03 17.35 90.56 17.34 92.10 17.28 C 91.38 16.71 90.64 16.16 89.88 15.64 C 89.06 16.15 88.26 16.70 87.50 17.30 Z" />
<path fill="#ffffff" opacity="1.00" d=" M 96.53 23.15 C 96.25 20.02 96.45 16.88 96.47 13.75 C 98.82 15.33 101.37 12.73 103.71 14.21 C 105.78 15.33 107.93 12.63 110.02 13.96 C 113.47 15.72 112.06 20.38 112.33 23.49 C 111.66 23.40 110.31 23.23 109.64 23.15 C 109.43 21.11 109.63 19.05 109.30 17.02 C 108.68 15.55 106.90 16.67 105.76 16.54 C 105.73 18.82 105.73 21.10 105.69 23.38 C 104.81 23.33 103.94 23.29 103.06 23.24 C 103.01 21.18 103.16 19.10 102.82 17.06 C 102.18 15.59 100.05 16.05 99.39 17.27 C 99.16 19.33 99.26 21.42 99.20 23.49 C 98.53 23.40 97.20 23.23 96.53 23.15 Z" />
</g>
<g id="#5b339799">
<path fill="#5b3397" opacity="0.60" d=" M 0.46 35.00 C 1.15 34.25 1.84 33.49 2.52 32.73 C 9.08 33.41 15.69 33.11 22.27 32.99 L 22.26 34.67 L 22.11 35.00 L 0.46 35.00 Z" />
</g>
</svg>
