<?xml version="1.0" encoding="UTF-8" ?>
<!DOCTYPE svg PUBLIC "-//W3C//DTD SVG 1.1//EN" "http://www.w3.org/Graphics/SVG/1.1/DTD/svg11.dtd">
<svg width="500pt" height="151pt" viewBox="0 0 500 151" version="1.1" xmlns="http://www.w3.org/2000/svg">
<g id="#ffffffff">
<path fill="#ffffff" opacity="1.00" d=" M 242.12 21.54 C 244.93 16.73 250.30 13.44 255.96 13.83 C 277.98 14.03 300.03 13.44 322.03 14.23 C 368.69 14.05 415.33 14.56 461.99 14.43 C 466.31 14.22 470.78 16.57 472.49 20.64 C 474.12 23.88 473.39 27.63 473.15 31.09 C 472.50 33.02 472.39 35.07 472.15 37.08 C 468.74 57.01 466.42 77.13 462.84 97.03 C 462.58 99.33 462.57 101.69 461.81 103.91 C 461.58 106.09 461.39 108.29 461.25 110.48 L 460.65 110.40 C 460.56 112.50 460.42 114.61 460.33 116.71 L 459.64 116.38 C 459.56 118.47 459.44 120.56 459.38 122.66 L 458.80 122.36 C 458.57 123.67 458.31 124.98 457.65 126.16 C 457.62 126.40 457.56 126.87 457.53 127.11 C 454.57 131.17 450.42 134.93 445.11 135.06 C 427.40 135.16 409.68 135.06 391.97 135.11 C 360.68 134.19 329.35 135.20 298.06 134.51 C 278.37 134.53 258.68 134.49 238.99 134.53 C 233.87 135.14 228.83 132.63 226.40 128.07 C 226.48 127.69 226.64 126.92 226.72 126.53 L 225.66 126.55 C 225.57 123.83 225.61 121.11 225.68 118.39 L 226.45 118.63 C 226.52 116.57 226.63 114.52 226.70 112.47 L 227.39 112.63 C 227.48 110.58 227.63 108.53 227.72 106.48 L 228.27 106.47 C 228.43 104.28 228.65 102.10 228.95 99.93 C 229.46 97.94 229.63 95.90 229.89 93.87 C 232.51 78.31 234.47 62.64 237.09 47.09 C 237.35 44.76 237.54 42.41 238.19 40.14 C 238.40 38.20 238.58 36.26 238.74 34.31 L 239.30 34.70 C 239.37 32.31 239.57 29.92 239.72 27.52 L 240.28 27.74 C 240.37 25.62 241.03 23.62 241.73 21.64 L 242.12 21.54 M 390.00 102.86 C 389.33 105.80 389.19 108.82 389.00 111.83 C 394.23 111.84 399.46 111.82 404.70 111.84 C 409.77 85.48 415.15 59.17 419.84 32.72 C 414.42 32.71 408.99 32.73 403.56 32.71 C 399.01 56.08 394.82 79.53 390.00 102.86 M 433.00 32.78 C 428.59 59.41 422.29 85.72 418.11 112.39 C 423.49 112.35 428.86 112.37 434.24 112.37 C 439.20 85.79 444.61 59.31 449.58 32.75 C 444.05 32.71 438.53 32.67 433.00 32.78 M 343.29 63.23 C 334.51 68.95 329.47 79.05 328.13 89.24 C 326.88 96.28 328.31 104.31 333.62 109.42 C 338.41 113.97 345.91 114.38 351.82 112.01 C 356.70 110.06 359.96 105.83 363.21 101.92 C 362.66 105.37 362.53 108.87 362.58 112.36 C 367.52 112.37 372.45 112.37 377.38 112.35 C 377.22 95.44 381.56 78.99 384.80 62.52 C 384.84 61.32 385.90 59.61 384.48 58.84 C 370.98 54.90 355.23 54.96 343.29 63.23 M 251.30 57.43 C 253.03 75.75 254.63 94.09 256.57 112.38 C 261.61 112.36 266.65 112.34 271.69 112.40 C 277.65 100.57 283.58 88.63 287.37 75.89 C 287.63 88.08 288.43 100.24 289.51 112.38 C 294.62 112.35 299.73 112.41 304.84 112.31 C 312.70 96.34 320.22 80.20 328.29 64.33 C 329.45 62.12 330.43 59.83 331.24 57.47 C 325.81 57.39 320.38 57.40 314.95 57.45 C 310.15 70.77 303.42 83.47 300.42 97.37 C 299.59 84.07 299.34 70.74 298.40 57.45 C 293.86 57.41 289.33 57.40 284.80 57.45 C 279.27 70.90 272.31 83.74 267.49 97.48 C 268.23 84.14 268.32 70.76 267.82 57.42 C 262.31 57.42 256.80 57.41 251.30 57.43 Z" />
<path fill="#ffffff" opacity="1.00" d=" M 75.87 38.89 C 78.66 35.54 83.36 34.66 87.28 36.46 C 88.25 37.28 89.22 38.12 90.18 38.96 C 90.48 39.41 91.09 40.32 91.40 40.78 C 91.92 42.67 92.37 44.59 92.62 46.55 L 91.86 46.47 C 91.54 47.81 91.02 49.08 90.51 50.35 C 89.11 51.42 87.68 52.45 86.24 53.45 C 81.66 54.76 76.99 52.91 74.34 49.02 C 74.44 48.67 74.64 47.96 74.73 47.61 L 73.63 47.48 C 73.61 45.80 73.60 44.11 73.58 42.43 L 74.65 42.39 C 74.58 42.04 74.42 41.34 74.35 40.99 C 74.73 40.47 75.49 39.42 75.87 38.89 Z" />
<path fill="#ffffff" opacity="1.00" d=" M 43.35 51.11 C 44.36 48.60 44.52 45.33 47.21 43.96 L 47.44 43.63 C 50.51 43.70 53.59 43.69 56.67 43.68 C 56.58 46.66 56.37 49.64 56.30 52.62 L 55.68 52.18 C 55.58 54.40 55.42 56.62 55.25 58.83 L 56.50 58.35 L 56.29 59.34 C 59.07 59.26 61.86 59.26 64.65 59.34 L 64.69 57.88 C 65.18 58.34 66.17 59.27 66.67 59.74 C 66.29 63.08 65.88 66.41 65.49 69.76 C 62.27 69.78 59.04 69.80 55.82 69.76 C 55.26 69.94 54.13 70.31 53.57 70.50 C 53.45 72.36 53.31 74.23 53.14 76.09 C 52.05 82.36 51.52 88.73 50.72 95.05 C 50.30 96.68 51.03 98.17 51.65 99.64 C 53.87 99.65 55.99 98.94 58.12 98.38 C 58.91 99.85 59.71 101.33 60.51 102.80 C 61.14 104.46 62.37 106.29 61.49 108.10 C 60.39 109.03 59.00 109.42 57.65 109.85 L 57.47 110.42 C 52.51 111.85 46.69 112.76 41.87 110.59 C 41.63 110.60 41.15 110.62 40.91 110.63 C 39.30 109.28 37.80 107.80 36.45 106.20 C 33.60 100.49 35.31 94.07 36.13 88.10 C 36.39 85.42 36.48 82.70 37.19 80.09 C 37.41 77.58 37.61 75.07 37.72 72.56 L 38.39 72.53 C 38.35 71.86 38.27 70.50 38.23 69.83 C 36.37 69.76 34.48 69.87 32.65 69.48 C 31.33 66.67 32.66 63.49 32.71 60.53 C 33.42 60.49 34.85 60.40 35.56 60.36 L 35.32 59.69 C 36.93 59.58 38.54 59.45 40.15 59.30 C 40.43 58.78 41.00 57.72 41.28 57.19 C 41.92 55.15 42.64 53.13 43.35 51.11 Z" />
<path fill="#ffffff" opacity="1.00" d=" M 73.44 59.38 C 78.60 59.18 83.76 59.32 88.93 59.28 C 88.68 62.72 88.39 66.16 88.32 69.61 L 87.78 69.59 C 87.62 75.11 86.50 80.52 86.10 86.02 C 84.56 94.43 84.73 103.16 82.61 111.43 C 77.83 111.25 73.04 111.32 68.26 111.38 L 68.56 110.33 L 67.40 110.80 C 68.48 103.91 68.82 96.90 70.09 90.04 C 70.35 87.22 70.57 84.39 70.71 81.56 L 71.29 81.55 C 71.35 78.80 71.55 76.07 71.67 73.33 L 72.31 73.61 C 72.35 70.57 72.60 67.54 72.71 64.50 L 73.38 64.59 C 73.39 62.85 73.42 61.12 73.44 59.38 Z" />
<path fill="#ffffff" opacity="1.00" d=" M 121.04 59.43 C 121.37 59.50 122.04 59.66 122.37 59.74 L 122.46 58.63 C 125.96 58.45 129.59 57.88 132.98 59.06 C 134.88 60.79 136.90 62.53 137.78 65.04 C 138.15 66.29 138.50 67.55 138.81 68.81 C 140.07 66.97 141.53 65.29 142.87 63.50 L 143.29 63.54 C 143.53 63.21 144.01 62.56 144.25 62.24 C 145.33 61.53 146.43 60.86 147.54 60.20 L 147.57 59.78 C 151.71 57.99 156.24 58.24 160.63 58.55 L 160.61 59.67 C 160.97 59.58 161.69 59.39 162.05 59.29 C 167.65 63.18 169.26 70.45 168.47 76.88 C 167.14 88.36 165.89 99.86 164.46 111.34 C 159.36 111.34 154.26 111.30 149.16 111.37 C 149.73 100.17 151.65 89.08 152.68 77.92 C 152.84 75.58 153.05 73.10 151.99 70.93 C 150.67 70.61 149.34 70.56 147.98 70.76 C 146.35 71.94 144.79 73.22 143.45 74.73 L 143.68 75.62 L 142.56 75.68 C 142.54 76.00 142.50 76.65 142.48 76.97 C 141.89 78.06 141.44 79.21 141.12 80.41 L 140.51 80.37 C 140.44 81.79 140.38 83.20 140.32 84.62 L 139.67 84.24 C 139.56 87.03 139.36 89.82 139.30 92.62 L 138.69 92.44 C 138.70 98.04 137.29 103.50 137.15 109.09 C 136.96 109.65 136.59 110.79 136.41 111.36 C 131.40 111.31 126.39 111.33 121.38 111.34 C 121.43 109.00 121.57 106.66 121.66 104.32 L 122.29 104.63 C 122.33 101.82 122.53 99.02 122.65 96.21 L 123.28 96.69 C 123.35 93.55 123.57 90.41 123.70 87.26 L 124.33 87.77 C 124.42 84.60 124.63 81.43 124.73 78.26 L 125.40 78.76 C 125.40 76.67 125.41 74.59 125.41 72.51 L 124.77 72.40 C 124.28 69.31 120.73 70.95 118.86 71.54 C 114.31 75.75 112.41 81.88 111.84 87.89 C 111.61 90.56 111.54 93.28 110.80 95.88 C 110.62 98.38 110.43 100.88 110.31 103.39 L 109.69 103.40 C 109.65 105.86 109.50 108.33 109.34 110.79 C 108.91 110.70 108.07 110.52 107.64 110.44 L 107.71 111.40 C 103.34 111.30 98.97 111.27 94.60 111.41 C 94.34 111.11 93.83 110.51 93.57 110.20 C 93.64 109.64 93.79 108.52 93.87 107.96 C 94.55 105.34 94.61 102.63 94.88 99.96 C 96.68 86.44 98.26 72.88 99.76 59.32 C 103.89 59.29 108.03 59.09 112.14 59.62 C 113.05 61.72 113.59 63.93 113.59 66.22 C 115.10 64.17 116.91 62.36 118.97 60.86 C 119.49 60.51 120.52 59.79 121.04 59.43 Z" />
<path fill="#ffffff" opacity="1.00" d=" M 191.96 60.16 C 193.15 59.75 194.37 59.43 195.61 59.21 L 195.42 58.63 C 199.79 58.32 204.17 58.25 208.54 58.66 L 208.54 59.25 C 216.06 60.64 221.33 68.58 219.24 76.06 C 216.98 83.63 208.94 86.35 202.07 88.10 C 200.39 88.37 198.69 88.58 197.09 89.17 C 194.51 89.44 191.93 89.64 189.35 89.80 C 189.41 91.90 189.10 94.22 190.52 95.99 C 190.53 96.24 190.55 96.73 190.56 96.97 C 195.60 102.18 204.13 100.14 208.93 95.62 C 210.57 95.44 212.22 95.45 213.86 95.67 C 215.32 97.64 216.94 99.49 218.61 101.29 C 216.11 104.00 213.21 106.30 210.09 108.24 C 209.57 108.57 208.52 109.24 208.00 109.57 C 207.77 109.57 207.29 109.55 207.06 109.54 C 205.92 110.34 204.63 110.78 203.20 110.88 L 203.76 111.32 C 197.69 111.76 191.36 112.49 185.52 110.37 L 185.42 109.48 C 185.06 109.51 184.33 109.57 183.97 109.60 C 180.47 107.05 177.56 103.82 175.50 100.01 C 175.50 99.76 175.48 99.26 175.48 99.01 C 174.20 97.34 174.44 95.17 174.26 93.20 L 173.61 93.78 C 173.56 90.92 173.58 88.06 173.66 85.20 L 174.34 85.66 C 174.41 83.89 174.48 82.13 174.57 80.36 C 174.78 80.43 175.21 80.57 175.42 80.64 C 175.45 79.83 175.52 78.22 175.55 77.41 L 176.12 77.44 C 176.52 76.25 176.98 75.08 177.49 73.93 C 177.53 73.72 177.62 73.28 177.66 73.07 C 181.14 67.55 185.75 62.57 191.96 60.16 M 192.21 75.06 C 191.66 76.66 191.15 78.26 190.68 79.88 C 192.77 79.72 194.88 79.53 196.91 78.96 C 197.93 78.65 198.96 78.35 200.00 78.07 C 201.37 77.45 202.69 76.73 204.00 75.99 C 204.71 74.65 205.30 73.25 205.66 71.77 C 204.59 70.18 203.03 69.16 201.22 68.62 C 197.27 69.16 194.29 71.82 192.21 75.06 Z" />
<path fill="#ffffff" opacity="1.00" d=" M 357.06 70.13 C 360.14 68.60 363.67 68.59 367.00 69.12 C 365.14 77.30 364.67 86.06 360.35 93.45 C 358.31 96.67 355.21 100.21 351.03 99.98 C 348.38 100.20 346.34 97.98 345.50 95.69 C 343.97 91.88 344.92 87.64 346.12 83.87 C 348.11 78.30 351.58 72.80 357.06 70.13 Z" />
</g>
<g id="#4bb170ff">
<path fill="#4bb170" opacity="1.00" d=" M 390.00 102.86 C 394.82 79.53 399.01 56.08 403.56 32.71 C 408.99 32.73 414.42 32.71 419.84 32.72 C 415.15 59.17 409.77 85.48 404.70 111.84 C 399.46 111.82 394.23 111.84 389.00 111.83 C 389.19 108.82 389.33 105.80 390.00 102.86 Z" />
<path fill="#4bb170" opacity="1.00" d=" M 433.00 32.78 C 438.53 32.67 444.05 32.71 449.58 32.75 C 444.61 59.31 439.20 85.79 434.24 112.37 C 428.86 112.37 423.49 112.35 418.11 112.39 C 422.29 85.72 428.59 59.41 433.00 32.78 Z" />
<path fill="#4bb170" opacity="1.00" d=" M 343.29 63.23 C 355.23 54.96 370.98 54.90 384.48 58.84 C 385.90 59.61 384.84 61.32 384.80 62.52 C 381.56 78.99 377.22 95.44 377.38 112.35 C 372.45 112.37 367.52 112.37 362.58 112.36 C 362.53 108.87 362.66 105.37 363.21 101.92 C 359.96 105.83 356.70 110.06 351.82 112.01 C 345.91 114.38 338.41 113.97 333.62 109.42 C 328.31 104.31 326.88 96.28 328.13 89.24 C 329.47 79.05 334.51 68.95 343.29 63.23 M 357.06 70.13 C 351.58 72.80 348.11 78.30 346.12 83.87 C 344.92 87.64 343.97 91.88 345.50 95.69 C 346.34 97.98 348.38 100.20 351.03 99.98 C 355.21 100.21 358.31 96.67 360.35 93.45 C 364.67 86.06 365.14 77.30 367.00 69.12 C 363.67 68.59 360.14 68.60 357.06 70.13 Z" />
<path fill="#4bb170" opacity="1.00" d=" M 251.30 57.43 C 256.80 57.41 262.31 57.42 267.82 57.42 C 268.32 70.76 268.23 84.14 267.49 97.48 C 272.31 83.74 279.27 70.90 284.80 57.45 C 289.33 57.40 293.86 57.41 298.40 57.45 C 299.34 70.74 299.59 84.07 300.42 97.37 C 303.42 83.47 310.15 70.77 314.95 57.45 C 320.38 57.40 325.81 57.39 331.24 57.47 C 330.43 59.83 329.45 62.12 328.29 64.33 C 320.22 80.20 312.70 96.34 304.84 112.31 C 299.73 112.41 294.62 112.35 289.51 112.38 C 288.43 100.24 287.63 88.08 287.37 75.89 C 283.58 88.63 277.65 100.57 271.69 112.40 C 266.65 112.34 261.61 112.36 256.57 112.38 C 254.63 94.09 253.03 75.75 251.30 57.43 Z" />
</g>
</svg>
